# xmcd CD database file
#
# Track frame offsets:
#	150
#	13583
#	36308
#	49655
#
# Disc length: 961 seconds
#
# Revision: 0
# Processed by: cddbd v1.4PL0 Copyright (c) Steve Scherf et al.
# Submitted via: CD2WAV32(EN) R3.17
#
DISCID=2a03bf04
DTITLE=ITOU Masumi - Net de Para
DYEAR=1900
DGENRE=
TTITLE0=La la la Paradise
TTITLE1=Hitotsu
TTITLE2=La la la Paradise Oke
TTITLE3=Hitotsu Oke
EXTD=
EXTT0=
EXTT1=
EXTT2=
EXTT3=
PLAYORDER=
